#!OML:ASF I:\Actors\actors\Patient Classification 1\Patient 1\Session 1\Subject1.ASF
:FULLY-SPECIFIED
:DEGREES
196
root -0.404688 17.4949 7.76749 5.87197 -0.989267 -7.50034
lowerback 1.41829 1.42047 3.30958
upperback -8.74059 2.36081 2.5537
thorax -10.0463 1.0144 0.636472
lowerneck -8.86593 -5.68636 -2.26302
upperneck 13.5518 -8.05589 4.30092
head 5.82311 -3.73597 1.09185
rclavicle 3.30976e-014 2.52457e-014
rhumerus -37.5355 33.5497 -98.2354
rradius 104.571
rwrist -7.3593
rhand 18.7788 -43.1268
rfingers 7.12502
rthumb 43.3958 -67.2314
lclavicle 3.30976e-014 2.52457e-014
lhumerus -46.5981 -18.5216 104.472
lradius 85.3657
lwrist 31.7079
lhand -15.1286 -14.4005
lfingers 7.12502
lthumb 11.0407 15.2892
rfemur 1.93813 22.6373 26.8522
rtibia 1.87438
rfoot -12.7161 -21.477
rtoes 1.89313
lfemur 12.1083 -42.1217 -19.0889
ltibia -5.06433
lfoot -15.9701 48.8914
ltoes 2.99498
197
root -0.414366 17.4967 7.75963 5.86758 -1.15616 -7.49003
lowerback 1.47329 1.42028 3.33047
upperback -8.78352 2.36997 2.59205
thorax -10.1291 1.01762 0.663683
lowerneck -8.83704 -5.41961 -1.97293
upperneck 13.4164 -7.69721 4.10329
head 5.74404 -3.56386 1.01661
rclavicle 1.14053e-014 -1.94809e-014
rhumerus -39.0182 33.6457 -101.169
rradius 103.649
rwrist -3.68099
rhand 19.1327 -41.9068
rfingers 7.12502
rthumb 43.7263 -65.891
lclavicle 1.14053e-014 -1.94809e-014
lhumerus -45.9595 -20.3124 105.983
lradius 87.1116
lwrist 32.386
lhand -14.85 -14.948
lfingers 7.12502
lthumb 11.3094 14.7271
rfemur 1.88102 22.7129 26.8573
rtibia 1.92628
rfoot -12.7229 -21.4129
rtoes 1.88028
lfemur 12.0214 -41.9015 -18.9969
ltibia -5.01202
lfoot -16.0255 48.7894
ltoes 3.06303
198
root -0.421021 17.496 7.75408 5.97116 -1.41906 -7.50452
lowerback 1.14291 1.7356 4.33173
upperback -8.6786 2.78198 1.95996
thorax -9.73399 1.11382 -0.59461
lowerneck -9.1488 -5.42873 -1.43248
upperneck 13.2133 -7.80578 4.30154
head 5.72478 -3.57376 0.977052
rclavicle 1.54058e-015 -1.76918e-014
rhumerus -39.6382 32.7544 -103.802
rradius 102.807
rwrist -1.68945
rhand 17.2699 -41.3802
rfingers 7.12502
rthumb 41.9838 -65.9757
lclavicle 1.54058e-015 -1.76918e-014
lhumerus -45.3832 -22.8752 106.8
lradius 88.6277
lwrist 32.9324
lhand -15.4828 -15.2454
lfingers 7.12502
lthumb 10.6991 14.4621
rfemur 1.67515 22.8025 26.8239
rtibia 2.01744
rfoot -12.6637 -21.2793
rtoes 1.71958
lfemur 11.8368 -41.6854 -18.8345
ltibia -4.95531
lfoot -16.1515 48.7716
ltoes 3.24884
199
root -0.42409 17.4935 7.7492 6.18368 -1.74793 -7.50235
lowerback 1.03522 1.75607 4.47459
upperback -8.82089 2.82001 1.99022
thorax -9.82482 1.11898 -0.642508
lowerneck -9.27738 -5.14942 -1.30405
upperneck 13.3467 -7.42631 4.13836
head 5.76582 -3.38991 0.931811
rclavicle 3.5334e-014 1.2921e-014
rhumerus -40.7231 33.028 -106.1
rradius 102.238
rwrist -1.08615
rhand 14.5641 -41.4959
rfingers 7.12502
rthumb 39.4411 -66.8881
lclavicle 3.5334e-014 1.2921e-014
lhumerus -45.1735 -23.457 107.629
lradius 90.0224
lwrist 32.9467
lhand -16.13 -15.9177
lfingers 7.12502
lthumb 10.0747 13.8211
rfemur 1.30385 22.7862 26.6782
rtibia 2.13282
rfoot -12.5243 -20.9795
rtoes 1.48607
lfemur 11.5145 -41.4532 -18.624
ltibia -4.88346
lfoot -16.4397 48.7803
ltoes 3.71912
200
root -0.424864 17.4905 7.74441 6.42432 -2.11345 -7.3872
lowerback 0.919959 1.7999 4.60902
upperback -8.97494 2.88239 1.94266
thorax -9.91926 1.13237 -0.77041
lowerneck -9.32139 -4.88111 -1.06305
upperneck 13.3791 -7.05911 3.87868
head 5.7547 -3.21689 0.841065
rclavicle 1.69464e-014 -3.53837e-014
rhumerus -41.4348 33.1067 -107.874
rradius 101.989
rwrist -0.781947
rhand 11.0903 -41.6453
rfingers 7.12502
rthumb 36.1597 -67.9224
lclavicle 1.69464e-014 -3.53837e-014
lhumerus -45.1655 -23.5712 108.024
lradius 91.0714
lwrist 32.3708
lhand -19.542 -12.9068
lfingers 7.12502
lthumb 6.78199 16.9645
rfemur 0.899884 22.7046 26.3672
rtibia 2.21497
rfoot -12.355 -20.613
rtoes 0.957051
lfemur 11.0635 -41.0612 -18.4699
ltibia -4.7387
lfoot -17.0967 48.6129
ltoes 4.8568
201
root -0.425444 17.4871 7.74022 6.65407 -2.51569 -7.28863
lowerback 0.796012 1.83009 4.78465
upperback -9.10255 2.92733 1.90531
thorax -9.97858 1.13496 -0.908054
lowerneck -9.31644 -4.5874 -0.70118
upperneck 13.3134 -6.64955 3.47564
head 5.69624 -3.03011 0.691763
rclavicle -6.23687e-015 -6.36111e-015
rhumerus -41.7163 32.9543 -108.983
rradius 102.088
rwrist 0.602281
rhand 8.42774 -41.3931
rfingers 7.12502
rthumb 33.6336 -68.2574
lclavicle -6.23687e-015 -6.36111e-015
lhumerus -45.174 -23.1019 107.889
lradius 91.5151
lwrist 31.5724
lhand -21.2184 -11.7166
lfingers 7.12502
lthumb 5.16351 18.2004
rfemur 0.553785 22.7643 26.1044
rtibia 2.24608
rfoot -12.22 -20.3491
rtoes 0.44996
lfemur 10.6006 -40.5958 -18.2865
ltibia -4.5734
lfoot -17.6691 48.4118
ltoes 5.79087
202
root -0.427407 17.4828 7.7361 6.91017 -2.91327 -7.25114
lowerback 0.632761 1.84945 4.96176
upperback -9.20085 2.9593 1.94403
thorax -9.98636 1.1363 -0.962569
lowerneck -9.28884 -4.26347 -0.392254
upperneck 13.0844 -6.17523 3.00906
head 5.58432 -2.82165 0.537962
rclavicle -8.10048e-015 3.18055e-014
rhumerus -41.6203 32.475 -109.35
rradius 102.509
rwrist 3.67389
rhand 7.552 -40.802
rfingers 7.12502
rthumb 32.801 -67.844
lclavicle -8.10048e-015 3.18055e-014
lhumerus -45.159 -22.1345 107.386
lradius 91.5439
lwrist 31.156
lhand -21.7473 -11.9188
lfingers 7.12502
lthumb 4.65277 18.0101
rfemur 0.186674 22.8435 25.906
rtibia 2.25979
rfoot -12.1418 -20.0744
rtoes 0.312161
lfemur 10.0246 -39.9896 -17.9373
ltibia -4.37553
lfoot -17.9021 48.1087
ltoes 6.11665
203
root -0.429473 17.4786 7.73431 7.11438 -3.29493 -7.17134
lowerback 0.466971 1.88454 5.10258
upperback -9.26529 3.00748 1.97788
thorax -9.95448 1.14968 -1.003
lowerneck -9.2538 -3.94829 -0.223943
upperneck 12.8234 -5.70535 2.62717
head 5.47175 -2.61586 0.432253
rclavicle 1.08835e-014 2.39536e-014
rhumerus -41.3661 31.4915 -109.232
rradius 103.252
rwrist 7.89048
rhand 7.03455 -39.8215
rfingers 7.12502
rthumb 32.3086 -66.9651
lclavicle 1.08835e-014 2.39536e-014
lhumerus -45.4051 -21.0032 106.706
lradius 91.555
lwrist 31.1695
lhand -22.6161 -12.9836
lfingers 7.12502
lthumb 3.81381 16.962
rfemur -0.107772 22.8068 25.6736
rtibia 2.23967
rfoot -12.0287 -19.7433
rtoes -0.120653
lfemur 9.52347 -39.3109 -17.6839
ltibia -4.17548
lfoot -18.0971 47.7136
ltoes 6.49286
204
root -0.431199 17.4779 7.73475 7.18177 -3.65744 -7.01274
lowerback 0.367861 1.93009 5.23536
upperback -9.27968 3.06359 1.91846
thorax -9.89992 1.16394 -1.14068
lowerneck -9.33352 -3.64636 0.0572706
upperneck 12.7568 -5.27633 2.2188
head 5.43904 -2.42181 0.291832
rclavicle 2.38666e-014 -1.09332e-015
rhumerus -39.9909 32.708 -108.522
rradius 103.485
rwrist 11.1672
rhand 4.2416 -39.3966
rfingers 7.12502
rthumb 29.6463 -67.0474
lclavicle 2.38666e-014 -1.09332e-015
lhumerus -46.0254 -19.939 105.852
lradius 91.6693
lwrist 30.8214
lhand -24.4932 -14.0729
lfingers 7.12502
lthumb 2.00108 15.8975
rfemur -0.213328 22.7854 25.4185
rtibia 2.18367
rfoot -11.9262 -19.5172
rtoes -0.815802
lfemur 9.33478 -38.7873 -17.7349
ltibia -4.0683
lfoot -18.1736 47.4772
ltoes 6.79523
205
root -0.434647 17.4797 7.73594 7.14018 -3.98902 -6.89151
lowerback 0.313795 1.94368 5.38525
upperback -9.23536 3.07743 1.85689
thorax -9.8074 1.15773 -1.28751
lowerneck -9.47214 -3.33634 0.519082
upperneck 12.7477 -4.85017 1.69129
head 5.42991 -2.22769 0.0830285
rclavicle 2.13694e-015 -3.08116e-015
rhumerus -38.2153 33.6387 -107.643
rradius 103.822
rwrist 14.6495
rhand 0.718762 -38.8761
rfingers 7.12502
rthumb 26.2786 -67.0761
lclavicle 2.13694e-015 -3.08116e-015
lhumerus -46.8534 -18.8135 104.822
lradius 91.7841
lwrist 29.3634
lhand -26.6565 -14.9266
lfingers 7.12502
lthumb -0.0883687 15.0531
rfemur -0.166945 22.829 25.2755
rtibia 2.12795
rfoot -11.9188 -19.3805
rtoes -1.26543
lfemur 9.34603 -38.3275 -17.8471
ltibia -4.03218
lfoot -18.0236 47.3038
ltoes 6.78984
206
root -0.440681 17.4824 7.73852 7.02781 -4.29655 -6.85599
lowerback 0.317272 1.92794 5.54765
upperback -9.17317 3.06026 1.8492
thorax -9.73405 1.13784 -1.38339
lowerneck -9.58586 -3.02459 0.998131
upperneck 12.719 -4.42543 1.16593
head 5.4144 -2.03402 -0.127637
rclavicle 5.66536e-015 -1.19271e-015
rhumerus -36.1118 34.9689 -106.756
rradius 104.238
rwrist 17.738
rhand -4.61877 -38.9086
rfingers 7.12502
rthumb 21.1597 -67.7739
lclavicle 5.66536e-015 -1.19271e-015
lhumerus -47.8384 -17.5263 103.662
lradius 91.8672
lwrist 27.3965
lhand -28.7596 -15.939
lfingers 7.12502
lthumb -2.11957 14.0303
rfemur 0.0293827 22.9548 25.3029
rtibia 2.01653
rfoot -11.9405 -19.2819
rtoes -1.25151
lfemur 9.48775 -37.8676 -17.9063
ltibia -4.04139
lfoot -17.8522 47.0946
ltoes 6.74777
207
root -0.446179 17.4831 7.7397 6.97758 -4.7529 -6.82777
lowerback 0.342771 2.01588 5.70218
upperback -9.16086 3.18306 1.79441
thorax -9.71858 1.1827 -1.53754
lowerneck -9.55353 -2.75122 1.2943
upperneck 12.5927 -4.06648 0.958797
head 5.35873 -1.8609 -0.21158
rclavicle -2.11209e-016 -6.65929e-015
rhumerus -33.6244 37.0476 -105.91
rradius 104.578
rwrist 20.3836
rhand -11.8687 -39.2801
rfingers 7.12502
rthumb 14.1835 -68.7759
lclavicle -2.11209e-016 -6.65929e-015
lhumerus -48.9614 -16.2787 102.382
lradius 92.0116
lwrist 26.1817
lhand -30.5153 -17.0401
lfingers 7.12502
lthumb -3.81509 12.9055
rfemur 0.0979152 23.0262 25.2677
rtibia 1.93713
rfoot -11.9278 -18.9537
rtoes -1.04442
lfemur 9.61577 -37.4227 -17.9729
ltibia -4.06236
lfoot -17.9684 47.0126
ltoes 7.01395
208
root -0.448621 17.4879 7.7421 6.78932 -4.8983 -6.82808
lowerback 0.508244 2.04133 5.90613
upperback -9.15791 3.2389 1.7544
thorax -9.80054 1.18845 -1.70386
lowerneck -9.34231 -2.52564 1.39175
upperneck 12.3774 -3.77376 1.01407
head 5.25591 -1.71324 -0.183625
rclavicle -3.35449e-015 -2.20651e-014
rhumerus -29.9918 38.9691 -104.102
rradius 104.651
rwrist 25.4397
rhand -15.5623 -39.1709
rfingers 7.12502
rthumb 10.6224 -68.8825
lclavicle -3.35449e-015 -2.20651e-014
lhumerus -50.1689 -14.9955 101.048
lradius 92.3053
lwrist 26.2271
lhand -31.8232 -18.071
lfingers 7.12502
lthumb -5.07805 11.8481
rfemur 0.413787 23.1197 25.3606
rtibia 1.78579
rfoot -12.0112 -18.9484
rtoes -0.822672
lfemur 9.71739 -36.9272 -17.9454
ltibia -3.99241
lfoot -17.7683 46.6429
ltoes 6.69659
209
root -0.455547 17.4908 7.74547 6.66659 -5.1418 -6.86675
lowerback 0.599627 2.11149 6.00225
upperback -9.18882 3.34887 1.76472
thorax -9.87952 1.2316 -1.75911
lowerneck -9.21476 -2.34066 1.6449
upperneck 12.3526 -3.53822 0.877157
head 5.22012 -1.59663 -0.248275
rclavicle -1.88845e-015 2.35063e-014
rhumerus -25.75 41.8944 -102.029
rradius 104.624
rwrist 29.868
rhand -19.8536 -41.1655
rfingers 7.12502
rthumb 6.48112 -71.0463
lclavicle -1.88845e-015 2.35063e-014
lhumerus -51.3669 -13.582 99.6255
lradius 92.7381
lwrist 27.1787
lhand -32.8135 -19.0509
lfingers 7.12502
lthumb -6.03411 10.8432
rfemur 0.660365 23.2983 25.4894
rtibia 1.67515
rfoot -12.0924 -18.8986
rtoes -0.850921
lfemur 9.93913 -36.6909 -17.9719
ltibia -4.01697
lfoot -17.7302 46.6193
ltoes 6.5667
210
root -0.46486 17.4942 7.7542 6.49512 -5.43199 -6.74795
lowerback 0.559725 2.23707 5.98
upperback -9.14984 3.50083 1.64633
thorax -9.79318 1.30517 -1.88275
lowerneck -9.25303 -2.22081 2.04113
upperneck 12.516 -3.41534 0.709034
head 5.26835 -1.52714 -0.35799
rclavicle 1.4884e-014 3.6477e-014
rhumerus -20.5725 44.8743 -99.4262
rradius 104.573
rwrist 33.8935
rhand -22.777 -39.5217
rfingers 7.12502
rthumb 3.65842 -69.47
lclavicle 1.4884e-014 3.6477e-014
lhumerus -52.3675 -12.2908 98.0339
lradius 93.2276
lwrist 28.2315
lhand -33.5918 -19.9848
lfingers 7.12502
lthumb -6.78551 9.88649
rfemur 1.07283 23.5513 25.5017
rtibia 1.40696
rfoot -12.1043 -18.8966
rtoes -0.851285
lfemur 10.4037 -36.6691 -18.3801
ltibia -4.10176
lfoot -17.9306 46.8329
ltoes 6.79666
